<?xml version="1.0" encoding="utf-8"?>
<!DOCTYPE score-partwise
  PUBLIC '-//Recordare//DTD MusicXML 2.0 Partwise//EN'
  'http://www.musicxml.org/dtds/2.0/partwise.dtd'>
<score-partwise version="2.0">
 <identification>
  <encoding>
   <encoding-date>2022-05-06</encoding-date>
   <software>Guitar Pro 7.6.0</software>
   <supports element="print" value="yes" type="yes" attribute="new-system"/>
  </encoding>
 </identification>
 <defaults>
  <scaling>
   <millimeters>6.4</millimeters>
   <tenths>40</tenths>
  </scaling>
  <page-layout>
   <page-height>1850</page-height>
   <page-width>1310</page-width>
  </page-layout>
 </defaults>
 <part-list>
  <score-part id="P1">
   <part-name>Steel Guitar</part-name>
   <part-abbreviation>s.guit.</part-abbreviation>
   <midi-instrument id="P1">
    <midi-channel>1</midi-channel>
    <midi-bank>1</midi-bank>
    <midi-program>26</midi-program>
    <volume>80</volume>
    <pan>0</pan>
   </midi-instrument>
  </score-part>
 </part-list>
 <part id="P1">
  <measure number="1">
   <print new-system="yes"/>
   <attributes>
    <divisions>16</divisions>
    <key>
     <fifths>0</fifths>
     <mode>major</mode>
    </key>
    <time>
     <beats>4</beats>
     <beat-type>4</beat-type>
    </time>
    <staves>2</staves>
    <clef number="1">
     <sign>G</sign>
     <line>2</line>
    </clef>
    <clef number="2">
     <sign>TAB</sign>
     <line>5</line>
    </clef>
    <staff-details number="1">
     <?GP <root>
<staff-tuning line="1">
<tuning-step>E</tuning-step>
<tuning-octave>2</tuning-octave>
</staff-tuning>
<staff-tuning line="2">
<tuning-step>A</tuning-step>
<tuning-octave>2</tuning-octave>
</staff-tuning>
<staff-tuning line="3">
<tuning-step>D</tuning-step>
<tuning-octave>3</tuning-octave>
</staff-tuning>
<staff-tuning line="4">
<tuning-step>G</tuning-step>
<tuning-octave>3</tuning-octave>
</staff-tuning>
<staff-tuning line="5">
<tuning-step>B</tuning-step>
<tuning-octave>3</tuning-octave>
</staff-tuning>
<staff-tuning line="6">
<tuning-step>E</tuning-step>
<tuning-octave>4</tuning-octave>
</staff-tuning>
</root>
?>
    </staff-details>
    <staff-details number="2">
     <staff-lines>6</staff-lines>
     <staff-tuning line="1">
      <tuning-step>E</tuning-step>
      <tuning-octave>2</tuning-octave>
     </staff-tuning>
     <staff-tuning line="2">
      <tuning-step>A</tuning-step>
      <tuning-octave>2</tuning-octave>
     </staff-tuning>
     <staff-tuning line="3">
      <tuning-step>D</tuning-step>
      <tuning-octave>3</tuning-octave>
     </staff-tuning>
     <staff-tuning line="4">
      <tuning-step>G</tuning-step>
      <tuning-octave>3</tuning-octave>
     </staff-tuning>
     <staff-tuning line="5">
      <tuning-step>B</tuning-step>
      <tuning-octave>3</tuning-octave>
     </staff-tuning>
     <staff-tuning line="6">
      <tuning-step>E</tuning-step>
      <tuning-octave>4</tuning-octave>
     </staff-tuning>
    </staff-details>
    <transpose number="1">
     <diatonic>0</diatonic>
     <chromatic>0</chromatic>
     <octave-change>0</octave-change>
    </transpose>
   </attributes>
   <note>
    <rest/>
    <duration>32</duration>
    <voice>1</voice>
    <type>half</type>
    <stem>up</stem>
    <staff>1</staff>
    <notehead>normal</notehead>
   </note>
   <note>
    <rest/>
    <duration>8</duration>
    <voice>1</voice>
    <type>eighth</type>
    <stem>up</stem>
    <staff>1</staff>
    <notehead>normal</notehead>
   </note>
   <note>
    <pitch>
     <step>G</step>
     <octave>4</octave>
    </pitch>
    <duration>8</duration>
    <voice>1</voice>
    <type>eighth</type>
    <stem>up</stem>
    <staff>1</staff>
    <notehead>normal</notehead>
    <notation>
     <dynamics>
      <mf/>
     </dynamics>
     <technical>
      <string>2</string>
      <fret>8</fret>
     </technical>
    </notation>
   </note>
   <note>
    <pitch>
     <step>A</step>
     <octave>4</octave>
    </pitch>
    <duration>8</duration>
    <voice>1</voice>
    <type>eighth</type>
    <stem>up</stem>
    <staff>1</staff>
    <notehead>normal</notehead>
    <notation>
     <dynamics>
      <mf/>
     </dynamics>
     <technical>
      <string>1</string>
      <fret>5</fret>
     </technical>
    </notation>
   </note>
   <note>
    <pitch>
     <step>C</step>
     <octave>5</octave>
    </pitch>
    <duration>8</duration>
    <voice>1</voice>
    <type>eighth</type>
    <stem>up</stem>
    <staff>1</staff>
    <notehead>normal</notehead>
    <notation>
     <dynamics>
      <mf/>
     </dynamics>
     <technical>
      <string>1</string>
      <fret>8</fret>
     </technical>
    </notation>
   </note>
   <backup>
    <duration>64</duration>
   </backup>
  </measure>
  <measure number="2">
   <note>
    <pitch>
     <step>B</step>
     <octave>4</octave>
    </pitch>
    <duration>16</duration>
    <voice>1</voice>
    <type>quarter</type>
    <stem>up</stem>
    <staff>1</staff>
    <notehead>normal</notehead>
    <notation>
     <dynamics>
      <mf/>
     </dynamics>
     <technical>
      <string>1</string>
      <fret>7</fret>
     </technical>
     <tie type="start"/>
    </notation>
   </note>
   <note>
    <chord/>
    <pitch>
     <step>E</step>
     <octave>4</octave>
    </pitch>
    <duration>16</duration>
    <voice>1</voice>
    <type>quarter</type>
    <stem>up</stem>
    <staff>1</staff>
    <notehead>normal</notehead>
    <notation>
     <dynamics>
      <mf/>
     </dynamics>
     <technical>
      <string>2</string>
      <fret>5</fret>
     </technical>
     <tie type="start"/>
    </notation>
   </note>
   <note>
    <chord/>
    <pitch>
     <step>C</step>
     <octave>4</octave>
    </pitch>
    <duration>16</duration>
    <voice>1</voice>
    <type>quarter</type>
    <stem>up</stem>
    <staff>1</staff>
    <notehead>normal</notehead>
    <notation>
     <dynamics>
      <mf/>
     </dynamics>
     <technical>
      <string>3</string>
      <fret>5</fret>
     </technical>
     <tie type="start"/>
    </notation>
   </note>
   <note>
    <pitch>
     <step>B</step>
     <octave>4</octave>
    </pitch>
    <duration>8.0</duration>
    <voice>1</voice>
    <type>quarter</type>
    <stem>up</stem>
    <staff>1</staff>
    <notehead>normal</notehead>
    <notation>
     <dynamics>
      <mf/>
     </dynamics>
     <technical>
      <string>1</string>
      <fret>7</fret>
     </technical>
     <tie type="stop"/>
    </notation>
   </note>
   <note>
    <chord/>
    <pitch>
     <step>E</step>
     <octave>4</octave>
    </pitch>
    <duration>8.0</duration>
    <voice>1</voice>
    <type>quarter</type>
    <stem>up</stem>
    <staff>1</staff>
    <notehead>normal</notehead>
    <notation>
     <dynamics>
      <mf/>
     </dynamics>
     <technical>
      <string>2</string>
      <fret>5</fret>
     </technical>
     <tie type="stop"/>
    </notation>
   </note>
   <note>
    <chord/>
    <pitch>
     <step>C</step>
     <octave>4</octave>
    </pitch>
    <duration>8.0</duration>
    <voice>1</voice>
    <type>quarter</type>
    <stem>up</stem>
    <staff>1</staff>
    <notehead>normal</notehead>
    <notation>
     <dynamics>
      <mf/>
     </dynamics>
     <technical>
      <string>3</string>
      <fret>5</fret>
     </technical>
     <tie type="stop"/>
    </notation>
   </note>
   <note>
    <pitch>
     <step>G</step>
     <octave>3</octave>
    </pitch>
    <duration>16</duration>
    <voice>1</voice>
    <type>quarter</type>
    <stem>up</stem>
    <staff>1</staff>
    <notehead>normal</notehead>
    <notation>
     <dynamics>
      <mf/>
     </dynamics>
     <technical>
      <string>4</string>
      <fret>5</fret>
     </technical>
    </notation>
   </note>
   <note>
    <pitch>
     <step>G</step>
     <octave>4</octave>
    </pitch>
    <duration>8</duration>
    <voice>1</voice>
    <type>eighth</type>
    <stem>up</stem>
    <staff>1</staff>
    <notehead>normal</notehead>
    <notation>
     <dynamics>
      <mf/>
     </dynamics>
     <technical>
      <string>2</string>
      <fret>8</fret>
     </technical>
    </notation>
   </note>
   <note>
    <pitch>
     <step>A</step>
     <octave>4</octave>
    </pitch>
    <duration>8</duration>
    <voice>1</voice>
    <type>eighth</type>
    <stem>up</stem>
    <staff>1</staff>
    <notehead>normal</notehead>
    <notation>
     <dynamics>
      <mf/>
     </dynamics>
     <technical>
      <string>1</string>
      <fret>5</fret>
     </technical>
    </notation>
   </note>
   <note>
    <pitch>
     <step>C</step>
     <octave>5</octave>
    </pitch>
    <duration>8</duration>
    <voice>1</voice>
    <type>eighth</type>
    <stem>up</stem>
    <staff>1</staff>
    <notehead>normal</notehead>
    <notation>
     <dynamics>
      <mf/>
     </dynamics>
     <technical>
      <string>1</string>
      <fret>8</fret>
     </technical>
    </notation>
   </note>
   <backup>
    <duration>64</duration>
   </backup>
  </measure>
  <measure number="3">
   <note>
    <pitch>
     <step>D</step>
     <octave>5</octave>
    </pitch>
    <duration>16</duration>
    <voice>1</voice>
    <type>quarter</type>
    <stem>up</stem>
    <staff>1</staff>
    <notehead>normal</notehead>
    <notation>
     <dynamics>
      <mf/>
     </dynamics>
     <technical>
      <string>1</string>
      <fret>10</fret>
     </technical>
     <tie type="start"/>
    </notation>
   </note>
   <note>
    <chord/>
    <pitch>
     <step>G</step>
     <octave>4</octave>
    </pitch>
    <duration>16</duration>
    <voice>1</voice>
    <type>quarter</type>
    <stem>up</stem>
    <staff>1</staff>
    <notehead>normal</notehead>
    <notation>
     <dynamics>
      <mf/>
     </dynamics>
     <technical>
      <string>2</string>
      <fret>8</fret>
     </technical>
     <tie type="start"/>
    </notation>
   </note>
   <note>
    <chord/>
    <pitch>
     <step>D</step>
     <octave>4</octave>
    </pitch>
    <duration>16</duration>
    <voice>1</voice>
    <type>quarter</type>
    <stem>up</stem>
    <staff>1</staff>
    <notehead>normal</notehead>
    <notation>
     <dynamics>
      <mf/>
     </dynamics>
     <technical>
      <string>3</string>
      <fret>7</fret>
     </technical>
     <tie type="start"/>
    </notation>
   </note>
   <note>
    <pitch>
     <step>D</step>
     <octave>5</octave>
    </pitch>
    <duration>8.0</duration>
    <voice>1</voice>
    <type>quarter</type>
    <stem>up</stem>
    <staff>1</staff>
    <notehead>normal</notehead>
    <notation>
     <dynamics>
      <mf/>
     </dynamics>
     <technical>
      <string>1</string>
      <fret>10</fret>
     </technical>
     <tie type="stop"/>
    </notation>
   </note>
   <note>
    <chord/>
    <pitch>
     <step>G</step>
     <octave>4</octave>
    </pitch>
    <duration>8.0</duration>
    <voice>1</voice>
    <type>quarter</type>
    <stem>up</stem>
    <staff>1</staff>
    <notehead>normal</notehead>
    <notation>
     <dynamics>
      <mf/>
     </dynamics>
     <technical>
      <string>2</string>
      <fret>8</fret>
     </technical>
     <tie type="stop"/>
    </notation>
   </note>
   <note>
    <chord/>
    <pitch>
     <step>D</step>
     <octave>4</octave>
    </pitch>
    <duration>8.0</duration>
    <voice>1</voice>
    <type>quarter</type>
    <stem>up</stem>
    <staff>1</staff>
    <notehead>normal</notehead>
    <notation>
     <dynamics>
      <mf/>
     </dynamics>
     <technical>
      <string>3</string>
      <fret>7</fret>
     </technical>
     <tie type="stop"/>
    </notation>
   </note>
   <note>
    <pitch>
     <step>A</step>
     <octave>3</octave>
    </pitch>
    <duration>16</duration>
    <voice>1</voice>
    <type>quarter</type>
    <stem>up</stem>
    <staff>1</staff>
    <notehead>normal</notehead>
    <notation>
     <dynamics>
      <mf/>
     </dynamics>
     <technical>
      <string>5</string>
      <fret>12</fret>
     </technical>
    </notation>
   </note>
   <note>
    <pitch>
     <step>G</step>
     <octave>4</octave>
    </pitch>
    <duration>8</duration>
    <voice>1</voice>
    <type>eighth</type>
    <stem>up</stem>
    <staff>1</staff>
    <notehead>normal</notehead>
    <notation>
     <dynamics>
      <mf/>
     </dynamics>
     <technical>
      <string>3</string>
      <fret>12</fret>
     </technical>
    </notation>
   </note>
   <note>
    <pitch>
     <step>A</step>
     <octave>4</octave>
    </pitch>
    <duration>8</duration>
    <voice>1</voice>
    <type>eighth</type>
    <stem>up</stem>
    <staff>1</staff>
    <notehead>normal</notehead>
    <notation>
     <dynamics>
      <mf/>
     </dynamics>
     <technical>
      <string>3</string>
      <fret>14</fret>
     </technical>
    </notation>
   </note>
   <note>
    <pitch>
     <step>C</step>
     <octave>5</octave>
    </pitch>
    <duration>8</duration>
    <voice>1</voice>
    <type>eighth</type>
    <stem>up</stem>
    <staff>1</staff>
    <notehead>normal</notehead>
    <notation>
     <dynamics>
      <mf/>
     </dynamics>
     <technical>
      <string>2</string>
      <fret>13</fret>
     </technical>
    </notation>
   </note>
   <backup>
    <duration>64</duration>
   </backup>
  </measure>
  <measure number="4">
   <note>
    <pitch>
     <step>G</step>
     <octave>5</octave>
    </pitch>
    <duration>16</duration>
    <voice>1</voice>
    <type>quarter</type>
    <stem>up</stem>
    <staff>1</staff>
    <notehead>normal</notehead>
    <notation>
     <dynamics>
      <mf/>
     </dynamics>
     <technical>
      <string>1</string>
      <fret>15</fret>
     </technical>
     <tie type="start"/>
    </notation>
   </note>
   <note>
    <chord/>
    <pitch>
     <step>C</step>
     <octave>5</octave>
    </pitch>
    <duration>16</duration>
    <voice>1</voice>
    <type>quarter</type>
    <stem>up</stem>
    <staff>1</staff>
    <notehead>normal</notehead>
    <notation>
     <dynamics>
      <mf/>
     </dynamics>
     <technical>
      <string>2</string>
      <fret>13</fret>
     </technical>
     <tie type="start"/>
    </notation>
   </note>
   <note>
    <chord/>
    <pitch>
     <step>G</step>
     <octave>4</octave>
    </pitch>
    <duration>16</duration>
    <voice>1</voice>
    <type>quarter</type>
    <stem>up</stem>
    <staff>1</staff>
    <notehead>normal</notehead>
    <notation>
     <dynamics>
      <mf/>
     </dynamics>
     <technical>
      <string>3</string>
      <fret>12</fret>
     </technical>
     <tie type="start"/>
    </notation>
   </note>
   <note>
    <pitch>
     <step>G</step>
     <octave>5</octave>
    </pitch>
    <duration>8.0</duration>
    <voice>1</voice>
    <type>quarter</type>
    <stem>up</stem>
    <staff>1</staff>
    <notehead>normal</notehead>
    <notation>
     <dynamics>
      <mf/>
     </dynamics>
     <technical>
      <string>1</string>
      <fret>15</fret>
     </technical>
     <tie type="stop"/>
    </notation>
   </note>
   <note>
    <chord/>
    <pitch>
     <step>C</step>
     <octave>5</octave>
    </pitch>
    <duration>8.0</duration>
    <voice>1</voice>
    <type>quarter</type>
    <stem>up</stem>
    <staff>1</staff>
    <notehead>normal</notehead>
    <notation>
     <dynamics>
      <mf/>
     </dynamics>
     <technical>
      <string>2</string>
      <fret>13</fret>
     </technical>
     <tie type="stop"/>
    </notation>
   </note>
   <note>
    <chord/>
    <pitch>
     <step>G</step>
     <octave>4</octave>
    </pitch>
    <duration>8.0</duration>
    <voice>1</voice>
    <type>quarter</type>
    <stem>up</stem>
    <staff>1</staff>
    <notehead>normal</notehead>
    <notation>
     <dynamics>
      <mf/>
     </dynamics>
     <technical>
      <string>3</string>
      <fret>12</fret>
     </technical>
     <tie type="stop"/>
    </notation>
   </note>
   <note>
    <pitch>
     <step>G</step>
     <octave>5</octave>
    </pitch>
    <duration>32</duration>
    <voice>1</voice>
    <type>half</type>
    <stem>up</stem>
    <staff>1</staff>
    <notehead>normal</notehead>
    <notation>
     <dynamics>
      <mf/>
     </dynamics>
     <technical>
      <string>1</string>
      <fret>15</fret>
     </technical>
    </notation>
   </note>
   <note>
    <chord/>
    <pitch>
     <step>C</step>
     <octave>5</octave>
    </pitch>
    <duration>32</duration>
    <voice>1</voice>
    <type>half</type>
    <stem>up</stem>
    <staff>1</staff>
    <notehead>normal</notehead>
    <notation>
     <dynamics>
      <mf/>
     </dynamics>
     <technical>
      <string>2</string>
      <fret>13</fret>
     </technical>
    </notation>
   </note>
   <note>
    <chord/>
    <pitch>
     <step>G</step>
     <octave>4</octave>
    </pitch>
    <duration>32</duration>
    <voice>1</voice>
    <type>half</type>
    <stem>up</stem>
    <staff>1</staff>
    <notehead>normal</notehead>
    <notation>
     <dynamics>
      <mf/>
     </dynamics>
     <technical>
      <string>3</string>
      <fret>12</fret>
     </technical>
    </notation>
   </note>
   <note>
    <pitch>
     <step>E</step>
     <octave>5</octave>
    </pitch>
    <duration>2</duration>
    <voice>1</voice>
    <type>32nd</type>
    <stem>up</stem>
    <staff>1</staff>
    <notehead>normal</notehead>
    <notation>
     <dynamics>
      <mf/>
     </dynamics>
     <technical>
      <string>1</string>
      <fret>12</fret>
     </technical>
    </notation>
   </note>
   <note>
    <pitch>
     <step>F</step>
     <octave>5</octave>
    </pitch>
    <duration>2</duration>
    <voice>1</voice>
    <type>32nd</type>
    <stem>up</stem>
    <staff>1</staff>
    <notehead>normal</notehead>
    <notation>
     <dynamics>
      <mf/>
     </dynamics>
     <technical>
      <string>1</string>
      <fret>13</fret>
     </technical>
    </notation>
   </note>
   <backup>
    <duration>64</duration>
   </backup>
  </measure>
  <measure number="5">
   <note>
    <pitch>
     <step>E</step>
     <octave>5</octave>
    </pitch>
    <duration>16</duration>
    <voice>1</voice>
    <type>quarter</type>
    <stem>up</stem>
    <staff>1</staff>
    <notehead>normal</notehead>
    <notation>
     <dynamics>
      <mf/>
     </dynamics>
     <technical>
      <string>1</string>
      <fret>12</fret>
     </technical>
    </notation>
   </note>
   <note>
    <pitch>
     <step>C</step>
     <octave>5</octave>
    </pitch>
    <duration>8</duration>
    <voice>1</voice>
    <type>eighth</type>
    <stem>up</stem>
    <staff>1</staff>
    <notehead>normal</notehead>
    <notation>
     <dynamics>
      <mf/>
     </dynamics>
     <technical>
      <string>1</string>
      <fret>8</fret>
     </technical>
    </notation>
   </note>
   <note>
    <pitch>
     <step>G</step>
     <octave>4</octave>
    </pitch>
    <duration>16</duration>
    <voice>1</voice>
    <type>quarter</type>
    <stem>up</stem>
    <staff>1</staff>
    <notehead>normal</notehead>
    <notation>
     <dynamics>
      <mf/>
     </dynamics>
     <technical>
      <string>2</string>
      <fret>8</fret>
     </technical>
    </notation>
   </note>
   <note>
    <pitch>
     <step>G</step>
     <octave>4</octave>
    </pitch>
    <duration>8</duration>
    <voice>1</voice>
    <type>eighth</type>
    <stem>up</stem>
    <staff>1</staff>
    <notehead>normal</notehead>
    <notation>
     <dynamics>
      <mf/>
     </dynamics>
     <technical>
      <string>2</string>
      <fret>8</fret>
     </technical>
    </notation>
   </note>
   <note>
    <pitch>
     <step>A</step>
     <octave>4</octave>
    </pitch>
    <duration>8</duration>
    <voice>1</voice>
    <type>eighth</type>
    <stem>up</stem>
    <staff>1</staff>
    <notehead>normal</notehead>
    <notation>
     <dynamics>
      <mf/>
     </dynamics>
     <technical>
      <string>1</string>
      <fret>5</fret>
     </technical>
    </notation>
   </note>
   <note>
    <pitch>
     <step>C</step>
     <octave>5</octave>
    </pitch>
    <duration>8</duration>
    <voice>1</voice>
    <type>eighth</type>
    <stem>up</stem>
    <staff>1</staff>
    <notehead>normal</notehead>
    <notation>
     <dynamics>
      <mf/>
     </dynamics>
     <technical>
      <string>1</string>
      <fret>8</fret>
     </technical>
    </notation>
   </note>
   <backup>
    <duration>64</duration>
   </backup>
  </measure>
  <measure number="6">
   <note>
    <pitch>
     <step>B</step>
     <octave>4</octave>
    </pitch>
    <duration>8</duration>
    <voice>1</voice>
    <type>eighth</type>
    <stem>up</stem>
    <staff>1</staff>
    <notehead>normal</notehead>
    <notation>
     <dynamics>
      <mf/>
     </dynamics>
     <technical>
      <string>1</string>
      <fret>7</fret>
     </technical>
    </notation>
   </note>
   <note>
    <chord/>
    <pitch>
     <step>E</step>
     <octave>4</octave>
    </pitch>
    <duration>8</duration>
    <voice>1</voice>
    <type>eighth</type>
    <stem>up</stem>
    <staff>1</staff>
    <notehead>normal</notehead>
    <notation>
     <dynamics>
      <mf/>
     </dynamics>
     <technical>
      <string>2</string>
      <fret>5</fret>
     </technical>
    </notation>
   </note>
   <note>
    <chord/>
    <pitch>
     <step>C</step>
     <octave>4</octave>
    </pitch>
    <duration>8</duration>
    <voice>1</voice>
    <type>eighth</type>
    <stem>up</stem>
    <staff>1</staff>
    <notehead>normal</notehead>
    <notation>
     <dynamics>
      <mf/>
     </dynamics>
     <technical>
      <string>3</string>
      <fret>5</fret>
     </technical>
    </notation>
   </note>
   <note>
    <pitch>
     <step>G</step>
     <octave>3</octave>
    </pitch>
    <duration>8</duration>
    <voice>1</voice>
    <type>eighth</type>
    <stem>up</stem>
    <staff>1</staff>
    <notehead>normal</notehead>
    <notation>
     <dynamics>
      <mf/>
     </dynamics>
     <technical>
      <string>4</string>
      <fret>5</fret>
     </technical>
    </notation>
   </note>
   <note>
    <pitch>
     <step>C</step>
     <octave>4</octave>
    </pitch>
    <duration>8</duration>
    <voice>1</voice>
    <type>eighth</type>
    <stem>up</stem>
    <staff>1</staff>
    <notehead>normal</notehead>
    <notation>
     <dynamics>
      <mf/>
     </dynamics>
     <technical>
      <string>3</string>
      <fret>5</fret>
     </technical>
    </notation>
   </note>
   <note>
    <pitch>
     <step>E</step>
     <octave>4</octave>
    </pitch>
    <duration>16</duration>
    <voice>1</voice>
    <type>quarter</type>
    <stem>up</stem>
    <staff>1</staff>
    <notehead>normal</notehead>
    <notation>
     <dynamics>
      <mf/>
     </dynamics>
     <technical>
      <string>2</string>
      <fret>5</fret>
     </technical>
    </notation>
   </note>
   <note>
    <pitch>
     <step>G</step>
     <octave>4</octave>
    </pitch>
    <duration>8</duration>
    <voice>1</voice>
    <type>eighth</type>
    <stem>up</stem>
    <staff>1</staff>
    <notehead>normal</notehead>
    <notation>
     <dynamics>
      <mf/>
     </dynamics>
     <technical>
      <string>2</string>
      <fret>8</fret>
     </technical>
    </notation>
   </note>
   <note>
    <pitch>
     <step>A</step>
     <octave>4</octave>
    </pitch>
    <duration>8</duration>
    <voice>1</voice>
    <type>eighth</type>
    <stem>up</stem>
    <staff>1</staff>
    <notehead>normal</notehead>
    <notation>
     <dynamics>
      <mf/>
     </dynamics>
     <technical>
      <string>1</string>
      <fret>5</fret>
     </technical>
    </notation>
   </note>
   <note>
    <pitch>
     <step>C</step>
     <octave>5</octave>
    </pitch>
    <duration>8</duration>
    <voice>1</voice>
    <type>eighth</type>
    <stem>up</stem>
    <staff>1</staff>
    <notehead>normal</notehead>
    <notation>
     <dynamics>
      <mf/>
     </dynamics>
     <technical>
      <string>1</string>
      <fret>8</fret>
     </technical>
    </notation>
   </note>
   <backup>
    <duration>64</duration>
   </backup>
  </measure>
  <measure number="7">
   <note>
    <pitch>
     <step>D</step>
     <octave>5</octave>
    </pitch>
    <duration>8</duration>
    <voice>1</voice>
    <type>eighth</type>
    <stem>up</stem>
    <staff>1</staff>
    <notehead>normal</notehead>
    <notation>
     <dynamics>
      <mf/>
     </dynamics>
     <technical>
      <string>1</string>
      <fret>10</fret>
     </technical>
    </notation>
   </note>
   <note>
    <chord/>
    <pitch>
     <step>G</step>
     <octave>4</octave>
    </pitch>
    <duration>8</duration>
    <voice>1</voice>
    <type>eighth</type>
    <stem>up</stem>
    <staff>1</staff>
    <notehead>normal</notehead>
    <notation>
     <dynamics>
      <mf/>
     </dynamics>
     <technical>
      <string>2</string>
      <fret>8</fret>
     </technical>
    </notation>
   </note>
   <note>
    <chord/>
    <pitch>
     <step>D</step>
     <octave>4</octave>
    </pitch>
    <duration>8</duration>
    <voice>1</voice>
    <type>eighth</type>
    <stem>up</stem>
    <staff>1</staff>
    <notehead>normal</notehead>
    <notation>
     <dynamics>
      <mf/>
     </dynamics>
     <technical>
      <string>3</string>
      <fret>7</fret>
     </technical>
    </notation>
   </note>
   <note>
    <pitch>
     <step>A</step>
     <octave>3</octave>
    </pitch>
    <duration>8</duration>
    <voice>1</voice>
    <type>eighth</type>
    <stem>up</stem>
    <staff>1</staff>
    <notehead>normal</notehead>
    <notation>
     <dynamics>
      <mf/>
     </dynamics>
     <technical>
      <string>4</string>
      <fret>7</fret>
     </technical>
    </notation>
   </note>
   <note>
    <pitch>
     <step>D</step>
     <octave>4</octave>
    </pitch>
    <duration>8</duration>
    <voice>1</voice>
    <type>eighth</type>
    <stem>up</stem>
    <staff>1</staff>
    <notehead>normal</notehead>
    <notation>
     <dynamics>
      <mf/>
     </dynamics>
     <technical>
      <string>3</string>
      <fret>7</fret>
     </technical>
    </notation>
   </note>
   <note>
    <pitch>
     <step>G</step>
     <octave>4</octave>
    </pitch>
    <duration>16</duration>
    <voice>1</voice>
    <type>quarter</type>
    <stem>up</stem>
    <staff>1</staff>
    <notehead>normal</notehead>
    <notation>
     <dynamics>
      <mf/>
     </dynamics>
     <technical>
      <string>2</string>
      <fret>8</fret>
     </technical>
    </notation>
   </note>
   <note>
    <pitch>
     <step>E</step>
     <octave>4</octave>
    </pitch>
    <duration>8</duration>
    <voice>1</voice>
    <type>eighth</type>
    <stem>up</stem>
    <staff>1</staff>
    <notehead>normal</notehead>
    <notation>
     <dynamics>
      <mf/>
     </dynamics>
     <technical>
      <string>2</string>
      <fret>5</fret>
     </technical>
    </notation>
   </note>
   <note>
    <pitch>
     <step>G</step>
     <octave>4</octave>
    </pitch>
    <duration>8</duration>
    <voice>1</voice>
    <type>eighth</type>
    <stem>up</stem>
    <staff>1</staff>
    <notehead>normal</notehead>
    <notation>
     <dynamics>
      <mf/>
     </dynamics>
     <technical>
      <string>2</string>
      <fret>8</fret>
     </technical>
    </notation>
   </note>
   <note>
    <pitch>
     <step>B</step>
     <octave>4</octave>
    </pitch>
    <duration>8</duration>
    <voice>1</voice>
    <type>eighth</type>
    <stem>up</stem>
    <staff>1</staff>
    <notehead>normal</notehead>
    <notation>
     <dynamics>
      <mf/>
     </dynamics>
     <technical>
      <string>1</string>
      <fret>7</fret>
     </technical>
    </notation>
   </note>
   <backup>
    <duration>64</duration>
   </backup>
  </measure>
  <measure number="8">
   <note>
    <pitch>
     <step>A</step>
     <octave>4</octave>
    </pitch>
    <duration>16</duration>
    <voice>1</voice>
    <type>quarter</type>
    <stem>up</stem>
    <staff>1</staff>
    <notehead>normal</notehead>
    <notation>
     <dynamics>
      <mf/>
     </dynamics>
     <technical>
      <string>1</string>
      <fret>5</fret>
     </technical>
     <tie type="start"/>
    </notation>
   </note>
   <note>
    <chord/>
    <pitch>
     <step>E</step>
     <octave>4</octave>
    </pitch>
    <duration>16</duration>
    <voice>1</voice>
    <type>quarter</type>
    <stem>up</stem>
    <staff>1</staff>
    <notehead>normal</notehead>
    <notation>
     <dynamics>
      <mf/>
     </dynamics>
     <technical>
      <string>2</string>
      <fret>5</fret>
     </technical>
     <tie type="start"/>
    </notation>
   </note>
   <note>
    <chord/>
    <pitch>
     <step>C</step>
     <octave>4</octave>
    </pitch>
    <duration>16</duration>
    <voice>1</voice>
    <type>quarter</type>
    <stem>up</stem>
    <staff>1</staff>
    <notehead>normal</notehead>
    <notation>
     <dynamics>
      <mf/>
     </dynamics>
     <technical>
      <string>3</string>
      <fret>5</fret>
     </technical>
     <tie type="start"/>
    </notation>
   </note>
   <note>
    <chord/>
    <pitch>
     <step>A</step>
     <octave>2</octave>
    </pitch>
    <duration>16</duration>
    <voice>1</voice>
    <type>quarter</type>
    <stem>up</stem>
    <staff>1</staff>
    <notehead>normal</notehead>
    <notation>
     <dynamics>
      <mf/>
     </dynamics>
     <technical>
      <string>5</string>
      <fret>0</fret>
     </technical>
     <tie type="start"/>
    </notation>
   </note>
   <note>
    <pitch>
     <step>A</step>
     <octave>4</octave>
    </pitch>
    <duration>8.0</duration>
    <voice>1</voice>
    <type>quarter</type>
    <stem>up</stem>
    <staff>1</staff>
    <notehead>normal</notehead>
    <notation>
     <dynamics>
      <mf/>
     </dynamics>
     <technical>
      <string>1</string>
      <fret>5</fret>
     </technical>
     <tie type="stop"/>
    </notation>
   </note>
   <note>
    <chord/>
    <pitch>
     <step>E</step>
     <octave>4</octave>
    </pitch>
    <duration>8.0</duration>
    <voice>1</voice>
    <type>quarter</type>
    <stem>up</stem>
    <staff>1</staff>
    <notehead>normal</notehead>
    <notation>
     <dynamics>
      <mf/>
     </dynamics>
     <technical>
      <string>2</string>
      <fret>5</fret>
     </technical>
     <tie type="stop"/>
    </notation>
   </note>
   <note>
    <chord/>
    <pitch>
     <step>C</step>
     <octave>4</octave>
    </pitch>
    <duration>8.0</duration>
    <voice>1</voice>
    <type>quarter</type>
    <stem>up</stem>
    <staff>1</staff>
    <notehead>normal</notehead>
    <notation>
     <dynamics>
      <mf/>
     </dynamics>
     <technical>
      <string>3</string>
      <fret>5</fret>
     </technical>
     <tie type="stop"/>
    </notation>
   </note>
   <note>
    <chord/>
    <pitch>
     <step>A</step>
     <octave>2</octave>
    </pitch>
    <duration>8.0</duration>
    <voice>1</voice>
    <type>quarter</type>
    <stem>up</stem>
    <staff>1</staff>
    <notehead>normal</notehead>
    <notation>
     <dynamics>
      <mf/>
     </dynamics>
     <technical>
      <string>5</string>
      <fret>0</fret>
     </technical>
     <tie type="stop"/>
    </notation>
   </note>
   <note>
    <pitch>
     <step>G</step>
     <octave>3</octave>
    </pitch>
    <duration>8</duration>
    <voice>1</voice>
    <type>eighth</type>
    <stem>up</stem>
    <staff>1</staff>
    <notehead>normal</notehead>
    <notation>
     <dynamics>
      <mf/>
     </dynamics>
     <technical>
      <string>4</string>
      <fret>5</fret>
     </technical>
    </notation>
   </note>
   <note>
    <pitch>
     <step>A</step>
     <octave>3</octave>
    </pitch>
    <duration>8</duration>
    <voice>1</voice>
    <type>eighth</type>
    <stem>up</stem>
    <staff>1</staff>
    <notehead>normal</notehead>
    <notation>
     <dynamics>
      <mf/>
     </dynamics>
     <technical>
      <string>4</string>
      <fret>7</fret>
     </technical>
    </notation>
   </note>
   <note>
    <pitch>
     <step>C</step>
     <octave>4</octave>
    </pitch>
    <duration>8</duration>
    <voice>1</voice>
    <type>eighth</type>
    <stem>up</stem>
    <staff>1</staff>
    <notehead>normal</notehead>
    <notation>
     <dynamics>
      <mf/>
     </dynamics>
     <technical>
      <string>3</string>
      <fret>5</fret>
     </technical>
    </notation>
   </note>
   <note>
    <pitch>
     <step>E</step>
     <octave>4</octave>
    </pitch>
    <duration>8</duration>
    <voice>1</voice>
    <type>eighth</type>
    <stem>up</stem>
    <staff>1</staff>
    <notehead>normal</notehead>
    <notation>
     <dynamics>
      <mf/>
     </dynamics>
     <technical>
      <string>2</string>
      <fret>5</fret>
     </technical>
    </notation>
   </note>
   <note>
    <pitch>
     <step>G</step>
     <octave>4</octave>
    </pitch>
    <duration>8</duration>
    <voice>1</voice>
    <type>eighth</type>
    <stem>up</stem>
    <staff>1</staff>
    <notehead>normal</notehead>
    <notation>
     <dynamics>
      <mf/>
     </dynamics>
     <technical>
      <string>2</string>
      <fret>8</fret>
     </technical>
    </notation>
   </note>
   <backup>
    <duration>64</duration>
   </backup>
  </measure>
  <measure number="9">
   <note>
    <pitch>
     <step>A</step>
     <octave>3</octave>
    </pitch>
    <duration>16</duration>
    <voice>1</voice>
    <type>quarter</type>
    <stem>up</stem>
    <staff>1</staff>
    <notehead>normal</notehead>
    <notation>
     <dynamics>
      <mf/>
     </dynamics>
     <technical>
      <string>4</string>
      <fret>7</fret>
     </technical>
     <tie type="start"/>
    </notation>
   </note>
   <note>
    <chord/>
    <pitch>
     <step>E</step>
     <octave>3</octave>
    </pitch>
    <duration>16</duration>
    <voice>1</voice>
    <type>quarter</type>
    <stem>up</stem>
    <staff>1</staff>
    <notehead>normal</notehead>
    <notation>
     <dynamics>
      <mf/>
     </dynamics>
     <technical>
      <string>5</string>
      <fret>7</fret>
     </technical>
     <tie type="start"/>
    </notation>
   </note>
   <note>
    <pitch>
     <step>A</step>
     <octave>3</octave>
    </pitch>
    <duration>8.0</duration>
    <voice>1</voice>
    <type>quarter</type>
    <stem>up</stem>
    <staff>1</staff>
    <notehead>normal</notehead>
    <notation>
     <dynamics>
      <mf/>
     </dynamics>
     <technical>
      <string>4</string>
      <fret>7</fret>
     </technical>
     <tie type="stop"/>
    </notation>
   </note>
   <note>
    <chord/>
    <pitch>
     <step>E</step>
     <octave>3</octave>
    </pitch>
    <duration>8.0</duration>
    <voice>1</voice>
    <type>quarter</type>
    <stem>up</stem>
    <staff>1</staff>
    <notehead>normal</notehead>
    <notation>
     <dynamics>
      <mf/>
     </dynamics>
     <technical>
      <string>5</string>
      <fret>7</fret>
     </technical>
     <tie type="stop"/>
    </notation>
   </note>
   <note>
    <pitch>
     <step>A</step>
     <octave>3</octave>
    </pitch>
    <duration>16</duration>
    <voice>1</voice>
    <type>quarter</type>
    <stem>up</stem>
    <staff>1</staff>
    <notehead>normal</notehead>
    <notation>
     <dynamics>
      <mf/>
     </dynamics>
     <technical>
      <string>3</string>
      <fret>2</fret>
     </technical>
    </notation>
   </note>
   <note>
    <pitch>
     <step>B</step>
     <octave>3</octave>
    </pitch>
    <duration>8</duration>
    <voice>1</voice>
    <type>eighth</type>
    <stem>up</stem>
    <staff>1</staff>
    <notehead>normal</notehead>
    <notation>
     <dynamics>
      <mf/>
     </dynamics>
     <technical>
      <string>2</string>
      <fret>0</fret>
     </technical>
    </notation>
   </note>
   <note>
    <pitch>
     <step>C</step>
     <octave>4</octave>
    </pitch>
    <duration>8</duration>
    <voice>1</voice>
    <type>eighth</type>
    <stem>up</stem>
    <staff>1</staff>
    <notehead>normal</notehead>
    <notation>
     <dynamics>
      <mf/>
     </dynamics>
     <technical>
      <string>2</string>
      <fret>1</fret>
     </technical>
    </notation>
   </note>
   <note>
    <pitch>
     <step>G</step>
     <octave>4</octave>
    </pitch>
    <duration>8</duration>
    <voice>1</voice>
    <type>eighth</type>
    <stem>up</stem>
    <staff>1</staff>
    <notehead>normal</notehead>
    <notation>
     <dynamics>
      <mf/>
     </dynamics>
     <technical>
      <string>1</string>
      <fret>3</fret>
     </technical>
    </notation>
   </note>
   <backup>
    <duration>64</duration>
   </backup>
  </measure>
 </part>
</score-partwise>
