<?xml version="1.0" encoding="UTF-8" ?>
<!DOCTYPE score-partwise PUBLIC '-//Recordare//DTD MusicXML 2.0 Partwise//EN' 'http://www.musicxml.org/dtds/2.0/partwise.dtd'>
<score-partwise version="2.0">
 <work>
  <work-title>Jack-in-the-Box Zombie</work-title>
 </work>
 <identification>
  <encoding>
   <encoding-date>2022-04-30</encoding-date>
   <software>Guitar Pro 7.6.0</software>
   <supports element="print" attribute="new-system" type="yes" value="yes"/>
  </encoding>
 </identification>
 <defaults>
  <scaling>
   <millimeters>6.4</millimeters>
   <tenths>40</tenths>
  </scaling>
  <page-layout>
   <page-height>1850</page-height>
   <page-width>1310</page-width>
  </page-layout>
 </defaults>
 <credit>
  <credit-words valign="top" justify="center" font-size="24">Jack-in-the-Box Zombie</credit-words>
 </credit>
 <credit>
  <credit-words valign="top" justify="center" font-size="14">植物大战僵尸</credit-words>
 </credit>
 <part-list>
  <score-part id="P1">
   <part-name>Marimba</part-name>
   <part-abbreviation>mar.</part-abbreviation>
   <midi-instrument id="P1">
    <midi-channel>1</midi-channel>
    <midi-bank>1</midi-bank>
    <midi-program>13</midi-program>
    <volume>80</volume>
    <pan>0</pan>
   </midi-instrument>
  </score-part>
 </part-list>
 <part id="P1">
  <measure number="1">
   <print new-system="yes"/>
   <attributes>
    <divisions>4</divisions>
    <key>
     <fifths>0</fifths>
     <mode>major</mode>
    </key>
    <time>
     <beats>2</beats>
     <beat-type>4</beat-type>
    </time>
    <staves>2</staves>
    <clef number="1">
     <sign>G</sign>
     <line>2</line>
    </clef>
    <clef number="2">
     <sign>TAB</sign>
     <line>5</line>
    </clef>
    <staff-details number="1">
<?GP 
<root>
<staff-tuning line="1">
<tuning-step>E</tuning-step>
<tuning-octave>2</tuning-octave>
</staff-tuning>
<staff-tuning line="2">
<tuning-step>A</tuning-step>
<tuning-octave>2</tuning-octave>
</staff-tuning>
<staff-tuning line="3">
<tuning-step>D</tuning-step>
<tuning-octave>3</tuning-octave>
</staff-tuning>
<staff-tuning line="4">
<tuning-step>G</tuning-step>
<tuning-octave>3</tuning-octave>
</staff-tuning>
<staff-tuning line="5">
<tuning-step>B</tuning-step>
<tuning-octave>3</tuning-octave>
</staff-tuning>
<staff-tuning line="6">
<tuning-step>E</tuning-step>
<tuning-octave>4</tuning-octave>
</staff-tuning>
</root>
?>
    </staff-details>
    <staff-details number="2">
     <staff-lines>6</staff-lines>
     <staff-tuning line="1">
      <tuning-step>E</tuning-step>
      <tuning-octave>2</tuning-octave>
     </staff-tuning>
     <staff-tuning line="2">
      <tuning-step>A</tuning-step>
      <tuning-octave>2</tuning-octave>
     </staff-tuning>
     <staff-tuning line="3">
      <tuning-step>D</tuning-step>
      <tuning-octave>3</tuning-octave>
     </staff-tuning>
     <staff-tuning line="4">
      <tuning-step>G</tuning-step>
      <tuning-octave>3</tuning-octave>
     </staff-tuning>
     <staff-tuning line="5">
      <tuning-step>B</tuning-step>
      <tuning-octave>3</tuning-octave>
     </staff-tuning>
     <staff-tuning line="6">
      <tuning-step>E</tuning-step>
      <tuning-octave>4</tuning-octave>
     </staff-tuning>
    </staff-details>
    <transpose number="1">
     <diatonic>0</diatonic>
     <chromatic>0</chromatic>
     <octave-change>1</octave-change>
    </transpose>
   </attributes>
   <direction directive="yes">
    <direction-type>
     <metronome parentheses="no" default-y="40">
      <beat-unit>quarter</beat-unit>
      <per-minute>160</per-minute>
     </metronome>
    </direction-type>
    <sound tempo="160"/>
   </direction>
   <direction>
    <direction-type>
     <dynamics>
      <mf/>
     </dynamics>
    </direction-type>
   </direction>
   <note>
    <rest/>
    <duration>4</duration>
    <voice>1</voice>
    <type>quarter</type>
    <staff>1</staff>
   </note>
   <note>
    <rest/>
    <duration>2</duration>
    <voice>1</voice>
    <type>eighth</type>
    <staff>1</staff>
   </note>
   <note>
    <rest/>
    <duration>1</duration>
    <voice>1</voice>
    <type>16th</type>
    <staff>1</staff>
   </note>
   <direction>
    <direction-type>
     <dynamics>
      <f/>
     </dynamics>
    </direction-type>
   </direction>
   <note>
    <pitch>
     <step>G</step>
     <octave>3</octave>
    </pitch>
    <duration>1</duration>
    <voice>1</voice>
    <type>16th</type>
    <stem>up</stem>
    <notehead>normal</notehead>
    <staff>1</staff>
   </note>
   <backup>
    <duration>8</duration>
   </backup>
   <direction>
    <direction-type>
     <dynamics>
      <mf/>
     </dynamics>
    </direction-type>
   </direction>
   <note>
    <rest/>
    <duration>4</duration>
    <voice>5</voice>
    <type>quarter</type>
    <staff>2</staff>
   </note>
   <note>
    <rest/>
    <duration>2</duration>
    <voice>5</voice>
    <type>eighth</type>
    <staff>2</staff>
   </note>
   <note>
    <rest/>
    <duration>1</duration>
    <voice>5</voice>
    <type>16th</type>
    <staff>2</staff>
   </note>
   <direction>
    <direction-type>
     <dynamics>
      <f/>
     </dynamics>
    </direction-type>
   </direction>
   <note>
    <pitch>
     <step>G</step>
     <octave>4</octave>
    </pitch>
    <duration>1</duration>
    <voice>5</voice>
    <type>16th</type>
    <stem>up</stem>
    <staff>2</staff>
    <notations>
     <technical>
      <string>3</string>
      <fret>12</fret>
     </technical>
    </notations>
   </note>
  </measure>
  <measure number="2">
   <attributes>
    <staff-details number="1">
<?GP 
<root>
</root>
?>
    </staff-details>
   </attributes>
   <direction>
    <direction-type>
     <dynamics>
      <f/>
     </dynamics>
    </direction-type>
   </direction>
   <note>
    <pitch>
     <step>C</step>
     <octave>4</octave>
    </pitch>
    <duration>2</duration>
    <voice>1</voice>
    <type>eighth</type>
    <stem>up</stem>
    <notehead>normal</notehead>
    <staff>1</staff>
   </note>
   <direction>
    <direction-type>
     <dynamics>
      <mf/>
     </dynamics>
    </direction-type>
   </direction>
   <note>
    <rest/>
    <duration>1</duration>
    <voice>1</voice>
    <type>16th</type>
    <staff>1</staff>
   </note>
   <direction>
    <direction-type>
     <dynamics>
      <f/>
     </dynamics>
    </direction-type>
   </direction>
   <note>
    <pitch>
     <step>C</step>
     <octave>4</octave>
    </pitch>
    <duration>1</duration>
    <voice>1</voice>
    <type>16th</type>
    <stem>up</stem>
    <notehead>normal</notehead>
    <staff>1</staff>
   </note>
   <note>
    <pitch>
     <step>D</step>
     <octave>4</octave>
    </pitch>
    <duration>2</duration>
    <voice>1</voice>
    <type>eighth</type>
    <stem>up</stem>
    <notehead>normal</notehead>
    <staff>1</staff>
   </note>
   <direction>
    <direction-type>
     <dynamics>
      <mf/>
     </dynamics>
    </direction-type>
   </direction>
   <note>
    <rest/>
    <duration>1</duration>
    <voice>1</voice>
    <type>16th</type>
    <staff>1</staff>
   </note>
   <direction>
    <direction-type>
     <dynamics>
      <f/>
     </dynamics>
    </direction-type>
   </direction>
   <note>
    <pitch>
     <step>D</step>
     <octave>4</octave>
    </pitch>
    <duration>1</duration>
    <voice>1</voice>
    <type>16th</type>
    <stem>up</stem>
    <notehead>normal</notehead>
    <staff>1</staff>
   </note>
   <backup>
    <duration>8</duration>
   </backup>
   <direction>
    <direction-type>
     <dynamics>
      <f/>
     </dynamics>
    </direction-type>
   </direction>
   <note>
    <pitch>
     <step>C</step>
     <octave>5</octave>
    </pitch>
    <duration>2</duration>
    <voice>5</voice>
    <type>eighth</type>
    <stem>up</stem>
    <staff>2</staff>
    <notations>
     <technical>
      <string>2</string>
      <fret>13</fret>
     </technical>
    </notations>
   </note>
   <direction>
    <direction-type>
     <dynamics>
      <mf/>
     </dynamics>
    </direction-type>
   </direction>
   <note>
    <rest/>
    <duration>1</duration>
    <voice>5</voice>
    <type>16th</type>
    <staff>2</staff>
   </note>
   <direction>
    <direction-type>
     <dynamics>
      <f/>
     </dynamics>
    </direction-type>
   </direction>
   <note>
    <pitch>
     <step>C</step>
     <octave>5</octave>
    </pitch>
    <duration>1</duration>
    <voice>5</voice>
    <type>16th</type>
    <stem>up</stem>
    <staff>2</staff>
    <notations>
     <technical>
      <string>2</string>
      <fret>13</fret>
     </technical>
    </notations>
   </note>
   <note>
    <pitch>
     <step>D</step>
     <octave>5</octave>
    </pitch>
    <duration>2</duration>
    <voice>5</voice>
    <type>eighth</type>
    <stem>up</stem>
    <staff>2</staff>
    <notations>
     <technical>
      <string>2</string>
      <fret>15</fret>
     </technical>
    </notations>
   </note>
   <direction>
    <direction-type>
     <dynamics>
      <mf/>
     </dynamics>
    </direction-type>
   </direction>
   <note>
    <rest/>
    <duration>1</duration>
    <voice>5</voice>
    <type>16th</type>
    <staff>2</staff>
   </note>
   <direction>
    <direction-type>
     <dynamics>
      <f/>
     </dynamics>
    </direction-type>
   </direction>
   <note>
    <pitch>
     <step>D</step>
     <octave>5</octave>
    </pitch>
    <duration>1</duration>
    <voice>5</voice>
    <type>16th</type>
    <stem>up</stem>
    <staff>2</staff>
    <notations>
     <technical>
      <string>2</string>
      <fret>15</fret>
     </technical>
    </notations>
   </note>
   <barline location="left">
    <repeat direction="forward" times="2"/>
   </barline>
  </measure>
  <measure number="3">
   <attributes>
    <divisions>12</divisions>
    <staff-details number="1">
<?GP 
<root>
</root>
?>
    </staff-details>
   </attributes>
   <direction>
    <direction-type>
     <dynamics>
      <f/>
     </dynamics>
    </direction-type>
   </direction>
   <note>
    <pitch>
     <step>E</step>
     <octave>4</octave>
    </pitch>
    <duration>4</duration>
    <voice>1</voice>
    <type>eighth</type>
    <time-modification>
     <actual-notes>3</actual-notes>
     <normal-notes>2</normal-notes>
    </time-modification>
    <stem>up</stem>
    <notehead>normal</notehead>
    <staff>1</staff>
    <beam number="1">begin</beam>
    <notations>
     <tuplet number="1" placement="below" bracket="yes" type="start"/>
    </notations>
   </note>
   <note>
    <pitch>
     <step>G</step>
     <octave>4</octave>
    </pitch>
    <duration>4</duration>
    <voice>1</voice>
    <type>eighth</type>
    <time-modification>
     <actual-notes>3</actual-notes>
     <normal-notes>2</normal-notes>
    </time-modification>
    <stem>up</stem>
    <notehead>normal</notehead>
    <staff>1</staff>
    <beam number="1">continue</beam>
   </note>
   <note>
    <pitch>
     <step>E</step>
     <octave>4</octave>
    </pitch>
    <duration>4</duration>
    <voice>1</voice>
    <type>eighth</type>
    <time-modification>
     <actual-notes>3</actual-notes>
     <normal-notes>2</normal-notes>
    </time-modification>
    <stem>up</stem>
    <notehead>normal</notehead>
    <staff>1</staff>
    <beam number="1">end</beam>
    <notations>
     <tuplet number="1" placement="below" bracket="yes" type="stop"/>
    </notations>
   </note>
   <note>
    <pitch>
     <step>C</step>
     <octave>4</octave>
    </pitch>
    <duration>6</duration>
    <voice>1</voice>
    <type>eighth</type>
    <stem>up</stem>
    <notehead>normal</notehead>
    <staff>1</staff>
   </note>
   <direction>
    <direction-type>
     <dynamics>
      <mf/>
     </dynamics>
    </direction-type>
   </direction>
   <note>
    <rest/>
    <duration>3</duration>
    <voice>1</voice>
    <type>16th</type>
    <staff>1</staff>
   </note>
   <direction>
    <direction-type>
     <dynamics>
      <f/>
     </dynamics>
    </direction-type>
   </direction>
   <note>
    <pitch>
     <step>G</step>
     <octave>3</octave>
    </pitch>
    <duration>3</duration>
    <voice>1</voice>
    <type>16th</type>
    <stem>up</stem>
    <notehead>normal</notehead>
    <staff>1</staff>
   </note>
   <backup>
    <duration>24</duration>
   </backup>
   <direction>
    <direction-type>
     <dynamics>
      <f/>
     </dynamics>
    </direction-type>
   </direction>
   <note>
    <pitch>
     <step>E</step>
     <octave>5</octave>
    </pitch>
    <duration>4</duration>
    <voice>5</voice>
    <type>eighth</type>
    <time-modification>
     <actual-notes>3</actual-notes>
     <normal-notes>2</normal-notes>
    </time-modification>
    <stem>up</stem>
    <staff>2</staff>
    <beam number="1">begin</beam>
    <notations>
     <tuplet number="1" placement="below" bracket="yes" type="start"/>
     <technical>
      <string>1</string>
      <fret>12</fret>
     </technical>
    </notations>
   </note>
   <note>
    <pitch>
     <step>G</step>
     <octave>5</octave>
    </pitch>
    <duration>4</duration>
    <voice>5</voice>
    <type>eighth</type>
    <time-modification>
     <actual-notes>3</actual-notes>
     <normal-notes>2</normal-notes>
    </time-modification>
    <stem>up</stem>
    <staff>2</staff>
    <beam number="1">continue</beam>
    <notations>
     <technical>
      <string>1</string>
      <fret>15</fret>
     </technical>
    </notations>
   </note>
   <note>
    <pitch>
     <step>E</step>
     <octave>5</octave>
    </pitch>
    <duration>4</duration>
    <voice>5</voice>
    <type>eighth</type>
    <time-modification>
     <actual-notes>3</actual-notes>
     <normal-notes>2</normal-notes>
    </time-modification>
    <stem>up</stem>
    <staff>2</staff>
    <beam number="1">end</beam>
    <notations>
     <tuplet number="1" placement="below" bracket="yes" type="stop"/>
     <technical>
      <string>1</string>
      <fret>12</fret>
     </technical>
    </notations>
   </note>
   <note>
    <pitch>
     <step>C</step>
     <octave>5</octave>
    </pitch>
    <duration>6</duration>
    <voice>5</voice>
    <type>eighth</type>
    <stem>up</stem>
    <staff>2</staff>
    <notations>
     <technical>
      <string>2</string>
      <fret>13</fret>
     </technical>
    </notations>
   </note>
   <direction>
    <direction-type>
     <dynamics>
      <mf/>
     </dynamics>
    </direction-type>
   </direction>
   <note>
    <rest/>
    <duration>3</duration>
    <voice>5</voice>
    <type>16th</type>
    <staff>2</staff>
   </note>
   <direction>
    <direction-type>
     <dynamics>
      <f/>
     </dynamics>
    </direction-type>
   </direction>
   <note>
    <pitch>
     <step>G</step>
     <octave>4</octave>
    </pitch>
    <duration>3</duration>
    <voice>5</voice>
    <type>16th</type>
    <stem>up</stem>
    <staff>2</staff>
    <notations>
     <technical>
      <string>3</string>
      <fret>12</fret>
     </technical>
    </notations>
   </note>
  </measure>
  <measure number="4">
   <attributes>
    <divisions>4</divisions>
    <staff-details number="1">
<?GP 
<root>
</root>
?>
    </staff-details>
   </attributes>
   <direction>
    <direction-type>
     <dynamics>
      <f/>
     </dynamics>
    </direction-type>
   </direction>
   <note>
    <pitch>
     <step>C</step>
     <octave>4</octave>
    </pitch>
    <duration>2</duration>
    <voice>1</voice>
    <type>eighth</type>
    <stem>up</stem>
    <notehead>normal</notehead>
    <staff>1</staff>
   </note>
   <direction>
    <direction-type>
     <dynamics>
      <mf/>
     </dynamics>
    </direction-type>
   </direction>
   <note>
    <rest/>
    <duration>1</duration>
    <voice>1</voice>
    <type>16th</type>
    <staff>1</staff>
   </note>
   <direction>
    <direction-type>
     <dynamics>
      <f/>
     </dynamics>
    </direction-type>
   </direction>
   <note>
    <pitch>
     <step>C</step>
     <octave>4</octave>
    </pitch>
    <duration>1</duration>
    <voice>1</voice>
    <type>16th</type>
    <stem>up</stem>
    <notehead>normal</notehead>
    <staff>1</staff>
   </note>
   <note>
    <pitch>
     <step>D</step>
     <octave>4</octave>
    </pitch>
    <duration>2</duration>
    <voice>1</voice>
    <type>eighth</type>
    <stem>up</stem>
    <notehead>normal</notehead>
    <staff>1</staff>
   </note>
   <direction>
    <direction-type>
     <dynamics>
      <mf/>
     </dynamics>
    </direction-type>
   </direction>
   <note>
    <rest/>
    <duration>1</duration>
    <voice>1</voice>
    <type>16th</type>
    <staff>1</staff>
   </note>
   <direction>
    <direction-type>
     <dynamics>
      <f/>
     </dynamics>
    </direction-type>
   </direction>
   <note>
    <pitch>
     <step>D</step>
     <octave>4</octave>
    </pitch>
    <duration>1</duration>
    <voice>1</voice>
    <type>16th</type>
    <stem>up</stem>
    <notehead>normal</notehead>
    <staff>1</staff>
   </note>
   <backup>
    <duration>8</duration>
   </backup>
   <direction>
    <direction-type>
     <dynamics>
      <f/>
     </dynamics>
    </direction-type>
   </direction>
   <note>
    <pitch>
     <step>C</step>
     <octave>5</octave>
    </pitch>
    <duration>2</duration>
    <voice>5</voice>
    <type>eighth</type>
    <stem>up</stem>
    <staff>2</staff>
    <notations>
     <technical>
      <string>2</string>
      <fret>13</fret>
     </technical>
    </notations>
   </note>
   <direction>
    <direction-type>
     <dynamics>
      <mf/>
     </dynamics>
    </direction-type>
   </direction>
   <note>
    <rest/>
    <duration>1</duration>
    <voice>5</voice>
    <type>16th</type>
    <staff>2</staff>
   </note>
   <direction>
    <direction-type>
     <dynamics>
      <f/>
     </dynamics>
    </direction-type>
   </direction>
   <note>
    <pitch>
     <step>C</step>
     <octave>5</octave>
    </pitch>
    <duration>1</duration>
    <voice>5</voice>
    <type>16th</type>
    <stem>up</stem>
    <staff>2</staff>
    <notations>
     <technical>
      <string>2</string>
      <fret>13</fret>
     </technical>
    </notations>
   </note>
   <note>
    <pitch>
     <step>D</step>
     <octave>5</octave>
    </pitch>
    <duration>2</duration>
    <voice>5</voice>
    <type>eighth</type>
    <stem>up</stem>
    <staff>2</staff>
    <notations>
     <technical>
      <string>2</string>
      <fret>15</fret>
     </technical>
    </notations>
   </note>
   <direction>
    <direction-type>
     <dynamics>
      <mf/>
     </dynamics>
    </direction-type>
   </direction>
   <note>
    <rest/>
    <duration>1</duration>
    <voice>5</voice>
    <type>16th</type>
    <staff>2</staff>
   </note>
   <direction>
    <direction-type>
     <dynamics>
      <f/>
     </dynamics>
    </direction-type>
   </direction>
   <note>
    <pitch>
     <step>D</step>
     <octave>5</octave>
    </pitch>
    <duration>1</duration>
    <voice>5</voice>
    <type>16th</type>
    <stem>up</stem>
    <staff>2</staff>
    <notations>
     <technical>
      <string>2</string>
      <fret>15</fret>
     </technical>
    </notations>
   </note>
  </measure>
  <measure number="5">
   <attributes>
    <staff-details number="1">
<?GP 
<root>
</root>
?>
    </staff-details>
   </attributes>
   <direction>
    <direction-type>
     <dynamics>
      <f/>
     </dynamics>
    </direction-type>
   </direction>
   <note>
    <pitch>
     <step>E</step>
     <octave>4</octave>
    </pitch>
    <duration>4</duration>
    <voice>1</voice>
    <type>quarter</type>
    <stem>up</stem>
    <notehead>normal</notehead>
    <staff>1</staff>
   </note>
   <note>
    <pitch>
     <step>C</step>
     <octave>4</octave>
    </pitch>
    <duration>3</duration>
    <voice>1</voice>
    <type>eighth</type>
    <dot/>
    <stem>up</stem>
    <notehead>normal</notehead>
    <staff>1</staff>
    <beam number="1">begin</beam>
   </note>
   <note>
    <pitch>
     <step>G</step>
     <octave>3</octave>
    </pitch>
    <duration>1</duration>
    <voice>1</voice>
    <type>16th</type>
    <stem>up</stem>
    <notehead>normal</notehead>
    <staff>1</staff>
    <beam number="1">end</beam>
   </note>
   <backup>
    <duration>8</duration>
   </backup>
   <direction>
    <direction-type>
     <dynamics>
      <f/>
     </dynamics>
    </direction-type>
   </direction>
   <note>
    <pitch>
     <step>E</step>
     <octave>5</octave>
    </pitch>
    <duration>4</duration>
    <voice>5</voice>
    <type>quarter</type>
    <stem>up</stem>
    <staff>2</staff>
    <notations>
     <technical>
      <string>1</string>
      <fret>12</fret>
     </technical>
    </notations>
   </note>
   <note>
    <pitch>
     <step>C</step>
     <octave>5</octave>
    </pitch>
    <duration>3</duration>
    <voice>5</voice>
    <type>eighth</type>
    <dot/>
    <stem>up</stem>
    <staff>2</staff>
    <beam number="1">begin</beam>
    <notations>
     <technical>
      <string>2</string>
      <fret>13</fret>
     </technical>
    </notations>
   </note>
   <note>
    <pitch>
     <step>G</step>
     <octave>4</octave>
    </pitch>
    <duration>1</duration>
    <voice>5</voice>
    <type>16th</type>
    <stem>up</stem>
    <staff>2</staff>
    <beam number="1">end</beam>
    <notations>
     <technical>
      <string>3</string>
      <fret>12</fret>
     </technical>
    </notations>
   </note>
  </measure>
  <measure number="6">
   <attributes>
    <staff-details number="1">
<?GP 
<root>
</root>
?>
    </staff-details>
   </attributes>
   <direction>
    <direction-type>
     <dynamics>
      <f/>
     </dynamics>
    </direction-type>
   </direction>
   <note>
    <pitch>
     <step>C</step>
     <octave>4</octave>
    </pitch>
    <duration>2</duration>
    <voice>1</voice>
    <type>eighth</type>
    <stem>up</stem>
    <notehead>normal</notehead>
    <staff>1</staff>
   </note>
   <direction>
    <direction-type>
     <dynamics>
      <mf/>
     </dynamics>
    </direction-type>
   </direction>
   <note>
    <rest/>
    <duration>1</duration>
    <voice>1</voice>
    <type>16th</type>
    <staff>1</staff>
   </note>
   <direction>
    <direction-type>
     <dynamics>
      <f/>
     </dynamics>
    </direction-type>
   </direction>
   <note>
    <pitch>
     <step>C</step>
     <octave>4</octave>
    </pitch>
    <duration>1</duration>
    <voice>1</voice>
    <type>16th</type>
    <stem>up</stem>
    <notehead>normal</notehead>
    <staff>1</staff>
   </note>
   <note>
    <pitch>
     <step>D</step>
     <octave>4</octave>
    </pitch>
    <duration>2</duration>
    <voice>1</voice>
    <type>eighth</type>
    <stem>up</stem>
    <notehead>normal</notehead>
    <staff>1</staff>
   </note>
   <direction>
    <direction-type>
     <dynamics>
      <mf/>
     </dynamics>
    </direction-type>
   </direction>
   <note>
    <rest/>
    <duration>1</duration>
    <voice>1</voice>
    <type>16th</type>
    <staff>1</staff>
   </note>
   <direction>
    <direction-type>
     <dynamics>
      <f/>
     </dynamics>
    </direction-type>
   </direction>
   <note>
    <pitch>
     <step>D</step>
     <octave>4</octave>
    </pitch>
    <duration>1</duration>
    <voice>1</voice>
    <type>16th</type>
    <stem>up</stem>
    <notehead>normal</notehead>
    <staff>1</staff>
   </note>
   <backup>
    <duration>8</duration>
   </backup>
   <direction>
    <direction-type>
     <dynamics>
      <f/>
     </dynamics>
    </direction-type>
   </direction>
   <note>
    <pitch>
     <step>C</step>
     <octave>5</octave>
    </pitch>
    <duration>2</duration>
    <voice>5</voice>
    <type>eighth</type>
    <stem>up</stem>
    <staff>2</staff>
    <notations>
     <technical>
      <string>2</string>
      <fret>13</fret>
     </technical>
    </notations>
   </note>
   <direction>
    <direction-type>
     <dynamics>
      <mf/>
     </dynamics>
    </direction-type>
   </direction>
   <note>
    <rest/>
    <duration>1</duration>
    <voice>5</voice>
    <type>16th</type>
    <staff>2</staff>
   </note>
   <direction>
    <direction-type>
     <dynamics>
      <f/>
     </dynamics>
    </direction-type>
   </direction>
   <note>
    <pitch>
     <step>C</step>
     <octave>5</octave>
    </pitch>
    <duration>1</duration>
    <voice>5</voice>
    <type>16th</type>
    <stem>up</stem>
    <staff>2</staff>
    <notations>
     <technical>
      <string>2</string>
      <fret>13</fret>
     </technical>
    </notations>
   </note>
   <note>
    <pitch>
     <step>D</step>
     <octave>5</octave>
    </pitch>
    <duration>2</duration>
    <voice>5</voice>
    <type>eighth</type>
    <stem>up</stem>
    <staff>2</staff>
    <notations>
     <technical>
      <string>2</string>
      <fret>15</fret>
     </technical>
    </notations>
   </note>
   <direction>
    <direction-type>
     <dynamics>
      <mf/>
     </dynamics>
    </direction-type>
   </direction>
   <note>
    <rest/>
    <duration>1</duration>
    <voice>5</voice>
    <type>16th</type>
    <staff>2</staff>
   </note>
   <direction>
    <direction-type>
     <dynamics>
      <f/>
     </dynamics>
    </direction-type>
   </direction>
   <note>
    <pitch>
     <step>D</step>
     <octave>5</octave>
    </pitch>
    <duration>1</duration>
    <voice>5</voice>
    <type>16th</type>
    <stem>up</stem>
    <staff>2</staff>
    <notations>
     <technical>
      <string>2</string>
      <fret>15</fret>
     </technical>
    </notations>
   </note>
  </measure>
  <measure number="7">
   <print new-system="yes"/>
   <attributes>
    <divisions>6</divisions>
    <staff-details number="1">
<?GP 
<root>
</root>
?>
    </staff-details>
   </attributes>
   <direction>
    <direction-type>
     <dynamics>
      <f/>
     </dynamics>
    </direction-type>
   </direction>
   <note>
    <pitch>
     <step>E</step>
     <octave>4</octave>
    </pitch>
    <duration>2</duration>
    <voice>1</voice>
    <type>eighth</type>
    <time-modification>
     <actual-notes>3</actual-notes>
     <normal-notes>2</normal-notes>
    </time-modification>
    <stem>up</stem>
    <notehead>normal</notehead>
    <staff>1</staff>
    <beam number="1">begin</beam>
    <notations>
     <tuplet number="1" placement="below" bracket="yes" type="start"/>
    </notations>
   </note>
   <note>
    <pitch>
     <step>G</step>
     <octave>4</octave>
    </pitch>
    <duration>2</duration>
    <voice>1</voice>
    <type>eighth</type>
    <time-modification>
     <actual-notes>3</actual-notes>
     <normal-notes>2</normal-notes>
    </time-modification>
    <stem>up</stem>
    <notehead>normal</notehead>
    <staff>1</staff>
    <beam number="1">continue</beam>
   </note>
   <note>
    <pitch>
     <step>E</step>
     <octave>4</octave>
    </pitch>
    <duration>2</duration>
    <voice>1</voice>
    <type>eighth</type>
    <time-modification>
     <actual-notes>3</actual-notes>
     <normal-notes>2</normal-notes>
    </time-modification>
    <stem>up</stem>
    <notehead>normal</notehead>
    <staff>1</staff>
    <beam number="1">end</beam>
    <notations>
     <tuplet number="1" placement="below" bracket="yes" type="stop"/>
    </notations>
   </note>
   <note>
    <pitch>
     <step>C</step>
     <octave>4</octave>
    </pitch>
    <duration>3</duration>
    <voice>1</voice>
    <type>eighth</type>
    <stem>up</stem>
    <notehead>normal</notehead>
    <staff>1</staff>
   </note>
   <direction>
    <direction-type>
     <dynamics>
      <mf/>
     </dynamics>
    </direction-type>
   </direction>
   <note>
    <rest/>
    <duration>3</duration>
    <voice>1</voice>
    <type>eighth</type>
    <staff>1</staff>
   </note>
   <backup>
    <duration>12</duration>
   </backup>
   <direction>
    <direction-type>
     <dynamics>
      <f/>
     </dynamics>
    </direction-type>
   </direction>
   <note>
    <pitch>
     <step>E</step>
     <octave>5</octave>
    </pitch>
    <duration>2</duration>
    <voice>5</voice>
    <type>eighth</type>
    <time-modification>
     <actual-notes>3</actual-notes>
     <normal-notes>2</normal-notes>
    </time-modification>
    <stem>up</stem>
    <staff>2</staff>
    <beam number="1">begin</beam>
    <notations>
     <tuplet number="1" placement="below" bracket="yes" type="start"/>
     <technical>
      <string>1</string>
      <fret>12</fret>
     </technical>
    </notations>
   </note>
   <note>
    <pitch>
     <step>G</step>
     <octave>5</octave>
    </pitch>
    <duration>2</duration>
    <voice>5</voice>
    <type>eighth</type>
    <time-modification>
     <actual-notes>3</actual-notes>
     <normal-notes>2</normal-notes>
    </time-modification>
    <stem>up</stem>
    <staff>2</staff>
    <beam number="1">continue</beam>
    <notations>
     <technical>
      <string>1</string>
      <fret>15</fret>
     </technical>
    </notations>
   </note>
   <note>
    <pitch>
     <step>E</step>
     <octave>5</octave>
    </pitch>
    <duration>2</duration>
    <voice>5</voice>
    <type>eighth</type>
    <time-modification>
     <actual-notes>3</actual-notes>
     <normal-notes>2</normal-notes>
    </time-modification>
    <stem>up</stem>
    <staff>2</staff>
    <beam number="1">end</beam>
    <notations>
     <tuplet number="1" placement="below" bracket="yes" type="stop"/>
     <technical>
      <string>1</string>
      <fret>12</fret>
     </technical>
    </notations>
   </note>
   <note>
    <pitch>
     <step>C</step>
     <octave>5</octave>
    </pitch>
    <duration>3</duration>
    <voice>5</voice>
    <type>eighth</type>
    <stem>up</stem>
    <staff>2</staff>
    <notations>
     <technical>
      <string>2</string>
      <fret>13</fret>
     </technical>
    </notations>
   </note>
   <direction>
    <direction-type>
     <dynamics>
      <mf/>
     </dynamics>
    </direction-type>
   </direction>
   <note>
    <rest/>
    <duration>3</duration>
    <voice>5</voice>
    <type>eighth</type>
    <staff>2</staff>
   </note>
  </measure>
  <measure number="8">
   <attributes>
    <divisions>4</divisions>
    <staff-details number="1">
<?GP 
<root>
</root>
?>
    </staff-details>
   </attributes>
   <direction>
    <direction-type>
     <dynamics>
      <f/>
     </dynamics>
    </direction-type>
   </direction>
   <note>
    <pitch>
     <step>A</step>
     <octave>4</octave>
    </pitch>
    <duration>2</duration>
    <voice>1</voice>
    <type>eighth</type>
    <stem>up</stem>
    <notehead>normal</notehead>
    <staff>1</staff>
   </note>
   <direction>
    <direction-type>
     <dynamics>
      <mf/>
     </dynamics>
    </direction-type>
   </direction>
   <note>
    <rest/>
    <duration>2</duration>
    <voice>1</voice>
    <type>eighth</type>
    <staff>1</staff>
   </note>
   <direction>
    <direction-type>
     <dynamics>
      <f/>
     </dynamics>
    </direction-type>
   </direction>
   <note>
    <pitch>
     <step>C</step>
     <octave>4</octave>
    </pitch>
    <duration>2</duration>
    <voice>1</voice>
    <type>eighth</type>
    <stem>up</stem>
    <notehead>normal</notehead>
    <staff>1</staff>
   </note>
   <direction>
    <direction-type>
     <dynamics>
      <mf/>
     </dynamics>
    </direction-type>
   </direction>
   <note>
    <rest/>
    <duration>1</duration>
    <voice>1</voice>
    <type>16th</type>
    <staff>1</staff>
   </note>
   <direction>
    <direction-type>
     <dynamics>
      <f/>
     </dynamics>
    </direction-type>
   </direction>
   <note>
    <pitch>
     <step>F</step>
     <octave>4</octave>
    </pitch>
    <duration>1</duration>
    <voice>1</voice>
    <type>16th</type>
    <stem>up</stem>
    <notehead>normal</notehead>
    <staff>1</staff>
   </note>
   <backup>
    <duration>8</duration>
   </backup>
   <direction>
    <direction-type>
     <dynamics>
      <f/>
     </dynamics>
    </direction-type>
   </direction>
   <note>
    <pitch>
     <step>A</step>
     <octave>5</octave>
    </pitch>
    <duration>2</duration>
    <voice>5</voice>
    <type>eighth</type>
    <stem>up</stem>
    <staff>2</staff>
    <notations>
     <technical>
      <string>1</string>
      <fret>17</fret>
     </technical>
    </notations>
   </note>
   <direction>
    <direction-type>
     <dynamics>
      <mf/>
     </dynamics>
    </direction-type>
   </direction>
   <note>
    <rest/>
    <duration>2</duration>
    <voice>5</voice>
    <type>eighth</type>
    <staff>2</staff>
   </note>
   <direction>
    <direction-type>
     <dynamics>
      <f/>
     </dynamics>
    </direction-type>
   </direction>
   <note>
    <pitch>
     <step>C</step>
     <octave>5</octave>
    </pitch>
    <duration>2</duration>
    <voice>5</voice>
    <type>eighth</type>
    <stem>up</stem>
    <staff>2</staff>
    <notations>
     <technical>
      <string>2</string>
      <fret>13</fret>
     </technical>
    </notations>
   </note>
   <direction>
    <direction-type>
     <dynamics>
      <mf/>
     </dynamics>
    </direction-type>
   </direction>
   <note>
    <rest/>
    <duration>1</duration>
    <voice>5</voice>
    <type>16th</type>
    <staff>2</staff>
   </note>
   <direction>
    <direction-type>
     <dynamics>
      <f/>
     </dynamics>
    </direction-type>
   </direction>
   <note>
    <pitch>
     <step>F</step>
     <octave>5</octave>
    </pitch>
    <duration>1</duration>
    <voice>5</voice>
    <type>16th</type>
    <stem>up</stem>
    <staff>2</staff>
    <notations>
     <technical>
      <string>1</string>
      <fret>13</fret>
     </technical>
    </notations>
   </note>
  </measure>
  <measure number="9">
   <attributes>
    <staff-details number="1">
<?GP 
<root>
</root>
?>
    </staff-details>
   </attributes>
   <direction>
    <direction-type>
     <dynamics>
      <f/>
     </dynamics>
    </direction-type>
   </direction>
   <note>
    <pitch>
     <step>E</step>
     <octave>4</octave>
    </pitch>
    <duration>4</duration>
    <voice>1</voice>
    <type>quarter</type>
    <stem>up</stem>
    <notehead>normal</notehead>
    <staff>1</staff>
   </note>
   <note>
    <pitch>
     <step>C</step>
     <octave>4</octave>
    </pitch>
    <duration>2</duration>
    <voice>1</voice>
    <type>eighth</type>
    <stem>up</stem>
    <notehead>normal</notehead>
    <staff>1</staff>
   </note>
   <direction>
    <direction-type>
     <dynamics>
      <mf/>
     </dynamics>
    </direction-type>
   </direction>
   <note>
    <rest/>
    <duration>1</duration>
    <voice>1</voice>
    <type>16th</type>
    <staff>1</staff>
   </note>
   <direction>
    <direction-type>
     <dynamics>
      <f/>
     </dynamics>
    </direction-type>
   </direction>
   <note>
    <pitch>
     <step>G</step>
     <octave>3</octave>
    </pitch>
    <duration>1</duration>
    <voice>1</voice>
    <type>16th</type>
    <stem>up</stem>
    <notehead>normal</notehead>
    <staff>1</staff>
   </note>
   <backup>
    <duration>8</duration>
   </backup>
   <direction>
    <direction-type>
     <dynamics>
      <f/>
     </dynamics>
    </direction-type>
   </direction>
   <note>
    <pitch>
     <step>E</step>
     <octave>5</octave>
    </pitch>
    <duration>4</duration>
    <voice>5</voice>
    <type>quarter</type>
    <stem>up</stem>
    <staff>2</staff>
    <notations>
     <technical>
      <string>1</string>
      <fret>12</fret>
     </technical>
    </notations>
   </note>
   <note>
    <pitch>
     <step>C</step>
     <octave>5</octave>
    </pitch>
    <duration>2</duration>
    <voice>5</voice>
    <type>eighth</type>
    <stem>up</stem>
    <staff>2</staff>
    <notations>
     <technical>
      <string>2</string>
      <fret>13</fret>
     </technical>
    </notations>
   </note>
   <direction>
    <direction-type>
     <dynamics>
      <mf/>
     </dynamics>
    </direction-type>
   </direction>
   <note>
    <rest/>
    <duration>1</duration>
    <voice>5</voice>
    <type>16th</type>
    <staff>2</staff>
   </note>
   <direction>
    <direction-type>
     <dynamics>
      <f/>
     </dynamics>
    </direction-type>
   </direction>
   <note>
    <pitch>
     <step>G</step>
     <octave>4</octave>
    </pitch>
    <duration>1</duration>
    <voice>5</voice>
    <type>16th</type>
    <stem>up</stem>
    <staff>2</staff>
    <notations>
     <technical>
      <string>3</string>
      <fret>12</fret>
     </technical>
    </notations>
   </note>
   <barline location="left">
    <ending number="1" type="start"/>
   </barline>
   <barline location="right">
    <ending number="1" type="stop"/>
    <repeat direction="backward" times="2"/>
   </barline>
  </measure>
  <measure number="10">
   <attributes>
    <divisions>2</divisions>
    <staff-details number="1">
<?GP 
<root>
</root>
?>
    </staff-details>
   </attributes>
   <direction>
    <direction-type>
     <dynamics>
      <f/>
     </dynamics>
    </direction-type>
   </direction>
   <note>
    <pitch>
     <step>E</step>
     <octave>4</octave>
    </pitch>
    <duration>2</duration>
    <voice>1</voice>
    <type>quarter</type>
    <stem>up</stem>
    <notehead>normal</notehead>
    <staff>1</staff>
   </note>
   <note>
    <pitch>
     <step>C</step>
     <octave>4</octave>
    </pitch>
    <duration>1</duration>
    <voice>1</voice>
    <type>eighth</type>
    <stem>up</stem>
    <notehead>normal</notehead>
    <staff>1</staff>
   </note>
   <direction>
    <direction-type>
     <dynamics>
      <mf/>
     </dynamics>
    </direction-type>
   </direction>
   <note>
    <rest/>
    <duration>1</duration>
    <voice>1</voice>
    <type>eighth</type>
    <staff>1</staff>
   </note>
   <backup>
    <duration>4</duration>
   </backup>
   <direction>
    <direction-type>
     <dynamics>
      <f/>
     </dynamics>
    </direction-type>
   </direction>
   <note>
    <pitch>
     <step>E</step>
     <octave>5</octave>
    </pitch>
    <duration>2</duration>
    <voice>5</voice>
    <type>quarter</type>
    <stem>up</stem>
    <staff>2</staff>
    <notations>
     <technical>
      <string>1</string>
      <fret>12</fret>
     </technical>
    </notations>
   </note>
   <note>
    <pitch>
     <step>C</step>
     <octave>5</octave>
    </pitch>
    <duration>1</duration>
    <voice>5</voice>
    <type>eighth</type>
    <stem>up</stem>
    <staff>2</staff>
    <notations>
     <technical>
      <string>2</string>
      <fret>13</fret>
     </technical>
    </notations>
   </note>
   <direction>
    <direction-type>
     <dynamics>
      <mf/>
     </dynamics>
    </direction-type>
   </direction>
   <note>
    <rest/>
    <duration>1</duration>
    <voice>5</voice>
    <type>eighth</type>
    <staff>2</staff>
   </note>
  </measure>
 </part>
</score-partwise>
